<svg width="209" height="166" viewBox="0 0 209 166" fill="none" xmlns="http://www.w3.org/2000/svg">
<path d="M131.5 117.7C132.4 117.7 133.1 117.7 133.8 117.7C135.8 116.6 137.1 115.2 137.5 113C139 111.8 138.1 109.7 139.2 108.3C138.8 106.2 140.3 104.9 141.3 103.5C142.1 102.3 142.4 100.8 143.6 99.9C144.7 99 145.6 97.8 146.5 96.6C147.4 95.4 148.6 94.4 150.2 93.8C151.8 93.1 153.6 92.3 154.7 90.5C156.1 90.8 157.4 88.9 158.9 90.5C159.3 90.6 159.6 90.1 159.9 90.1C163.5 90 167.1 89.4 170.7 90.5C173.3 91.2 175.7 92 178 93.6C183.2 97.3 183.2 97.4 186.6 102.5C188.1 104.7 188.6 107.2 189.3 109.6C189.6 110.5 189.8 111.5 190.1 112.4C190.5 113.8 190.6 114.9 190.1 116.3C189.6 117.6 189.3 119.1 189.3 120.6C189.2 123.9 188.1 126.9 186 129.5C183.1 133.1 180.3 136.7 177.1 140.1C175.3 142 173.3 143.4 171 144.5C168.1 145.9 165.3 147.5 162.1 148.4C160.5 148.8 159 148.9 157.5 148.4C155.1 147.6 152.7 146.7 150.1 147C148.7 147.1 147.9 146 146.7 145.6C146.4 145.5 146.2 144.9 145.9 144.8C142.4 143.8 140.5 140.8 137.9 138.6C137.2 138 137.1 137 136.2 136.3C135.1 136.3 133.9 136.3 132.6 136.3C129.1 138.6 129.7 138.6 128.4 142.9C127.5 143.8 126.7 144.7 125.8 145.5C124.9 146.4 124.2 147.4 123.9 148.7C123.7 149.9 123 151.1 121.9 151.5C119.7 152.4 117.9 153.7 115.9 155C114.4 156 112.6 156.2 110.9 156.7C107.4 157.8 103.8 157.6 100.3 157.1C96.6001 156.6 92.8001 155.8 89.7001 153.1C88.3001 151.9 86.5001 151.1 85.2001 149.6C84.1001 148.4 83.4001 147 82.7001 145.5C81.9001 143.7 81.2001 141.7 79.8001 140.1C79.1001 139.3 79.1001 138.1 78.1001 137.3C76.0001 136.7 73.9001 138.2 71.8001 137.8C71.0001 138.6 70.3001 139.2 69.7001 139.9C67.7001 142.4 64.9001 143.8 62.2001 145.2C59.7001 146.4 57.0001 147.6 54.1001 147.5C53.6001 147.5 53.0001 147.4 52.5001 147.9C52.3001 148.1 51.5001 148.2 51.2001 148C49.0001 147 46.8001 147.6 44.6001 147.5C42.5001 147.4 40.6001 146.7 38.9001 145.4C36.9001 143.9 35.1001 142.1 32.8001 140.9C30.2001 139.6 28.8001 137.2 27.1001 135.1C26.0001 133.8 25.2001 132.2 24.0001 131C22.6001 129.6 21.8001 128 21.4001 126.1C21.1001 124.7 20.3001 123.3 19.8001 122C19.0001 119.8 17.8001 117.7 19.2001 115.3C18.8001 112.4 20.8001 109.8 20.3001 106.9C20.2001 106.1 20.8001 105.5 21.1001 104.9C22.1001 103 23.2001 101.2 24.3001 99.4C24.5001 99 24.9001 98.7 25.3001 98.5C26.5001 98 27.5001 97.1 27.9001 96.1C28.6001 94.3 30.3001 94 31.7001 93.4C33.4001 92.7 35.0001 92 36.3001 90.7C37.3001 89.8 38.2001 88.9 40.1001 89.7C41.5001 90.3 43.5001 89.8 45.2001 89.8C49.0001 89.8 50.7001 90.4 54.8001 92C56.8001 92.8 58.7001 93.8 60.4001 94.9C61.8001 95.8 62.6001 97.4 63.5001 98.7C64.5001 100.2 65.6001 101.7 66.8001 103C68.0001 104.2 68.7001 105.9 69.2001 107.4C70.0001 110.3 72.1001 112.4 73.3001 115.1C73.5001 115.6 74.4001 115.3 74.7001 116C75.8001 115.7 76.8001 116.1 78.0001 115.6C80.0001 114.7 80.8001 113 81.2001 111.3C82.1001 107.7 84.3001 105.2 86.8001 102.8C87.6001 102.1 88.6001 101.7 89.5001 101.2C91.5001 99.9 93.5001 98.6 95.6001 97.4C96.4001 96.9 97.3001 96.6 98.4001 96.6C101.3 96.7 104.3 96.5 107.2 96.7C110.7 96.9 114 97.9 117 99.8C119.1 101.1 121.1 102.6 122.8 104.4C125.2 106.8 126.7 109.9 129 112.4C128.7 113.1 129.6 113.4 129.6 114.2C129.7 115.6 130.3 116.4 131.5 117.7Z" fill="black"/>
<path d="M131.6 34.6C132.6 34.6 133.7 34.5 134.7 34.6C136.1 34.7 137.2 34.2 138.1 33.2C139.7 31.6 141.2 30 143.1 28.7C144.4 27.8 145.6 26.9 147.1 26.6C147.7 26.5 148.2 26.1 148.8 25.8C150.1 25.2 151.5 24.6 152.9 24.8C154.5 25.1 155.9 24.2 157.5 24.2C159 24.2 160.5 24.2 162.1 24.2C163.8 24.2 168.6 25.9 170.1 26.8C172 28 173.7 29.4 175.6 30.7C176.4 31.3 176.6 32.4 177.4 33.1C179.3 34.8 181 36.7 182.9 38.5C185.1 40.6 186.5 43.2 188 45.8C188.8 47.3 188.9 49 189.4 50.6C189.6 51.3 189.8 52.1 190.1 52.9C190.7 54.7 191 56.4 190.1 58.1C189.5 59.2 189.4 60.4 189.5 61.6C189.7 63.5 189 65.2 188.2 66.8C186.3 71 183.2 74.2 180 77.3C179 78.2 172.9 81.4 171.6 81.7C171.4 81.7 171.2 81.8 171.1 81.7C168.3 81.4 165.6 82.7 162.8 82.3C159.2 81.7 155.5 81.3 152.3 79.4C149.1 77.5 146.3 75.3 144.2 72.1C142.9 70.2 141.6 68.3 141 66C140.8 65.3 140.2 64.8 139.8 64.2C138.6 62.2 137.5 60 136.9 57.1C136.6 56.9 135.9 56.2 135.2 55.6C133.9 54.6 132.3 54.7 131 55.7C130.2 56.3 129.6 57.1 128.6 57.5C127.8 57.9 127.5 58.9 127.4 59.8C127.4 60.7 127.4 61.5 127.4 62.5C125.6 65.1 123.5 67.4 120.8 69.2C118.7 70.6 116.7 72.2 114.7 73.6C113.6 74.4 112.5 74.8 111.2 74.7C110.8 74.7 110.4 74.7 110.1 74.7C107.6 74.3 105.2 75.3 102.7 75.3C101.6 75.3 100.6 75 99.5 74.8C95 73.8 91.2 71.3 87.4 68.9C85.5 67.7 84.4 65.7 83.2 63.9C82.1 62.4 81 60.9 80.4 59.1C80 57.9 79 57.4 78.4 56.6C73.8 55.4 73.4 57.1 70.5 59.3C70.4 59.4 70.2 59.6 70.1 59.7C70.1 59.9 70 60.1 70.1 60.3C70.6 64.3 68.5 67.2 66.1 70C64.7 71.7 63.2 73.3 62.1 75.2C61.5 76.2 60.4 76.8 59.4 77.5C56.9 79.3 54.2 80.5 51.2 81.1C50.5 81.3 49.8 81.4 49.2 81.7C46.8 82.6 44.8 82.5 41.4 81.8C40.5 81.6 39.5 81.8 38.7 81.8C36.4 80.3 33.8 79.7 31.5 78.4C30.5 77.8 29.4 77.3 28.6 76.4C26.9 74.5 24.8 73.1 23.6 70.8C22.9 69.5 22.2 68.2 21.7 66.7C21 64.5 19.9 62.5 19.3 60.3C19.2 59.8 19.1 59.3 19 58.7C18.8 57.6 19.3 56.8 19.6 55.8C19.8 54.9 19.3 54 20 53.1C20.5 52.5 20.2 51.6 20.1 50.9C20 50.1 20.8 49.7 20.7 48.9C20.4 46.9 21.6 45.3 22.6 43.7C23.9 41.7 25.5 39.9 26.9 38C28.5 35.8 30 33.7 32.6 32.5C33.4 32.1 33.8 31 34.1 30.3C35.2 28.2 36.8 27.5 39 27.6C39.3 27.6 39.6 27.6 39.7 27.6C41.1 26.6 42.6 26.1 43.8 24.7C45 24.9 46.3 24.3 47.6 24.2C49 24 50.4 24.2 51.9 24.1C55.3 23.9 58.5 24.9 61.5 26.3C62.1 26.6 62.8 26.8 63.5 27C64.9 27.5 66.4 28.1 67.4 29.4C68.5 30.9 70.3 31.7 71.6 33C72.2 33.5 73.1 34 74.1 33.9C75.2 33.8 76.4 33.9 77.3 33.9C80.6 31.4 82.3 27.9 84.6 24.9C86.5 22.3 88.3 19.7 91.6 18.4C93.9 17.5 96.3 16.5 98.7 15.1C101.4 15.7 104.1 14.4 107 14.5C108.3 14.6 109.5 14.8 110.6 15.4C112.3 16.3 114 16.8 115.8 17.3C120 18.7 122.9 21.2 125 25.1C126.4 27.8 128.2 30.3 129.8 32.8C129.9 33.7 130.7 34.2 131.6 34.6Z" fill="black"/>
</svg>
